ISO-10303-21;
HEADER;
FILE_DESCRIPTION (( 'STEP AP214' ),
    '1' );
FILE_NAME ('Carrier.STEP',
    '2026-08-20T13:33:05',
    ( '' ),
    ( '' ),
    'SwSTEP 2.0',
    'SolidWorks 2026',
    '' );
FILE_SCHEMA (( 'AUTOMOTIVE_DESIGN' ));
ENDSEC;

DATA;
#1 = CARTESIAN_POINT ( 'NONE',  ( 9.999999999999994671, 5.773502691896262640, 7.500000000000000000 ) ) ;
#2 = ORIENTED_EDGE ( 'NONE', *, *, #65, .T. ) ;
#3 = ADVANCED_FACE ( 'NONE', ( #558 ), #507, .T. ) ;
#4 = CARTESIAN_POINT ( 'NONE',  ( -36.37306695894642417, -21.00000000000000000, 29.50000000000000000 ) ) ;
#5 = ORIENTED_EDGE ( 'NONE', *, *, #25, .F. ) ;
#6 = COLOUR_RGB ( '',0.7921568627450980005, 0.8196078431372548767, 0.9333333333333333481 ) ;
#7 = AXIS2_PLACEMENT_3D ( 'NONE', #466, #680, #521 ) ;
#8 = CARTESIAN_POINT ( 'NONE',  ( 36.37306695894642417, -21.00000000000000000, 29.50000000000000000 ) ) ;
#9 = DIRECTION ( 'NONE',  ( -0.000000000000000000, -0.000000000000000000, -1.000000000000000000 ) ) ;
#10 = ORIENTED_EDGE ( 'NONE', *, *, #238, .T. ) ;
#11 = APPLICATION_PROTOCOL_DEFINITION ( 'draft international standard', 'automotive_design', 1998, #165 ) ;
#12 = FACE_OUTER_BOUND ( 'NONE', #171, .T. ) ;
#13 = VERTEX_POINT ( 'NONE', #408 ) ;
#14 = CARTESIAN_POINT ( 'NONE',  ( -36.37306695894642417, -21.00000000000000000, 7.500000000000000000 ) ) ;
#15 = ORIENTED_EDGE ( 'NONE', *, *, #230, .T. ) ;
#16 = STYLED_ITEM ( 'NONE', ( #433 ), #235 ) ;
#17 = ADVANCED_FACE ( 'NONE', ( #462 ), #672, .T. ) ;
#18 = AXIS2_PLACEMENT_3D ( 'NONE', #695, #644, #275 ) ;
#19 = CARTESIAN_POINT ( 'NONE',  ( 1.040834085586084257E-14, -11.54700538379251462, -7.500000000000000000 ) ) ;
#20 = VERTEX_POINT ( 'NONE', #264 ) ;
#21 = ADVANCED_FACE ( 'NONE', ( #135 ), #145, .F. ) ;
#22 = DIRECTION ( 'NONE',  ( -0.000000000000000000, -0.000000000000000000, -1.000000000000000000 ) ) ;
#23 = DIRECTION ( 'NONE',  ( 0.5000000000000002220, 0.8660254037844385966, -0.000000000000000000 ) ) ;
#24 = ORIENTED_EDGE ( 'NONE', *, *, #549, .T. ) ;
#25 = EDGE_CURVE ( 'NONE', #13, #456, #369, .T. ) ;
#26 = CARTESIAN_POINT ( 'NONE',  ( 7.500000000000000000, 42.00000000000000000, 29.50000000000000000 ) ) ;
#27 = CARTESIAN_POINT ( 'NONE',  ( 0.000000000000000000, 0.000000000000000000, 29.50000000000000000 ) ) ;
#28 = DIRECTION ( 'NONE',  ( 1.000000000000000000, 0.000000000000000000, 0.000000000000000000 ) ) ;
#29 = AXIS2_PLACEMENT_3D ( 'NONE', #128, #463, #667 ) ;
#30 = LINE ( 'NONE', #257, #114 ) ;
#31 = AXIS2_PLACEMENT_3D ( 'NONE', #647, #45, #655 ) ;
#32 = ORIENTED_EDGE ( 'NONE', *, *, #319, .T. ) ;
#33 = DIRECTION ( 'NONE',  ( 1.000000000000000000, 0.000000000000000000, 0.000000000000000000 ) ) ;
#34 = ADVANCED_FACE ( 'NONE', ( #585 ), #38, .T. ) ;
#35 = LINE ( 'NONE', #484, #444 ) ;
#36 = EDGE_LOOP ( 'NONE', ( #306, #383 ) ) ;
#37 = CARTESIAN_POINT ( 'NONE',  ( -46.37306695894643127, -21.00000000000000000, -7.500000000000000000 ) ) ;
#38 = PLANE ( 'NONE',  #342 ) ;
#39 = ORIENTED_EDGE ( 'NONE', *, *, #502, .F. ) ;
#40 = EDGE_CURVE ( 'NONE', #381, #336, #630, .T. ) ;
#41 = CARTESIAN_POINT ( 'NONE',  ( 7.500000000000000000, 42.00000000000000000, 29.50000000000000000 ) ) ;
#42 =( LENGTH_UNIT ( ) NAMED_UNIT ( * ) SI_UNIT ( .MILLI., .METRE. ) );
#43 = AXIS2_PLACEMENT_3D ( 'NONE', #567, #60, #609 ) ;
#44 = ORIENTED_EDGE ( 'NONE', *, *, #134, .T. ) ;
#45 = DIRECTION ( 'NONE',  ( 0.000000000000000000, 0.000000000000000000, 1.000000000000000000 ) ) ;
#46 = DIRECTION ( 'NONE',  ( -0.000000000000000000, -0.000000000000000000, -1.000000000000000000 ) ) ;
#47 = EDGE_LOOP ( 'NONE', ( #526, #705 ) ) ;
#48 = EDGE_CURVE ( 'NONE', #336, #222, #208, .T. ) ;
#49 = CARTESIAN_POINT ( 'NONE',  ( -46.37306695894643127, -21.00000000000000000, 7.500000000000000000 ) ) ;
#50 = FACE_OUTER_BOUND ( 'NONE', #345, .T. ) ;
#51 = ORIENTED_EDGE ( 'NONE', *, *, #40, .T. ) ;
#52 = DIRECTION ( 'NONE',  ( 0.000000000000000000, 0.000000000000000000, 1.000000000000000000 ) ) ;
#53 = LINE ( 'NONE', #385, #160 ) ;
#54 = ORIENTED_EDGE ( 'NONE', *, *, #579, .T. ) ;
#55 = AXIS2_PLACEMENT_3D ( 'NONE', #546, #46, #270 ) ;
#56 = VECTOR ( 'NONE', #247, 1000.000000000000114 ) ;
#57 = VECTOR ( 'NONE', #314, 1000.000000000000000 ) ;
#58 = EDGE_CURVE ( 'NONE', #348, #67, #403, .T. ) ;
#59 = EDGE_LOOP ( 'NONE', ( #245, #351, #201, #394 ) ) ;
#60 = DIRECTION ( 'NONE',  ( 0.000000000000000000, 0.000000000000000000, 1.000000000000000000 ) ) ;
#61 = APPLICATION_CONTEXT ( 'automotive_design' ) ;
#62 = CARTESIAN_POINT ( 'NONE',  ( -41.37306696058863054, -12.33974596310373428, -7.500000000000000000 ) ) ;
#63 = CARTESIAN_POINT ( 'NONE',  ( 0.000000000000000000, 42.00000000000000000, 29.50000000000000000 ) ) ;
#64 = CARTESIAN_POINT ( 'NONE',  ( -36.37306695894642417, -21.00000000000000000, 7.500000000000000000 ) ) ;
#65 = EDGE_CURVE ( 'NONE', #490, #179, #35, .T. ) ;
#66 = CARTESIAN_POINT ( 'NONE',  ( 36.37306695894642417, -21.00000000000000000, 29.50000000000000000 ) ) ;
#67 = VERTEX_POINT ( 'NONE', #364 ) ;
#68 = AXIS2_PLACEMENT_3D ( 'NONE', #101, #550, #496 ) ;
#69 = EDGE_CURVE ( 'NONE', #120, #20, #586, .T. ) ;
#70 = VECTOR ( 'NONE', #584, 1000.000000000000114 ) ;
#71 = CARTESIAN_POINT ( 'NONE',  ( 0.000000000000000000, 42.00000000000000000, 29.50000000000000000 ) ) ;
#72 = DIRECTION ( 'NONE',  ( 0.000000000000000000, 0.000000000000000000, 1.000000000000000000 ) ) ;
#73 = ORIENTED_EDGE ( 'NONE', *, *, #163, .T. ) ;
#74 = DIRECTION ( 'NONE',  ( 1.000000000000000000, 0.000000000000000000, 0.000000000000000000 ) ) ;
#75 = PLANE ( 'NONE',  #79 ) ;
#76 = ORIENTED_EDGE ( 'NONE', *, *, #262, .F. ) ;
#77 = CARTESIAN_POINT ( 'NONE',  ( 0.000000000000000000, 0.000000000000000000, 29.50000000000000000 ) ) ;
#78 = VERTEX_POINT ( 'NONE', #692 ) ;
#79 = AXIS2_PLACEMENT_3D ( 'NONE', #1, #455, #116 ) ;
#80 = CARTESIAN_POINT ( 'NONE',  ( -7.500000000000000000, 0.000000000000000000, 29.50000000000000000 ) ) ;
#81 = DIRECTION ( 'NONE',  ( 0.000000000000000000, 0.000000000000000000, 1.000000000000000000 ) ) ;
#82 = EDGE_LOOP ( 'NONE', ( #211, #505 ) ) ;
#83 = CARTESIAN_POINT ( 'NONE',  ( 1.040834085586084257E-14, -11.54700538379251462, -7.500000000000000000 ) ) ;
#84 = DIRECTION ( 'NONE',  ( 1.000000000000000000, 0.000000000000000000, 0.000000000000000000 ) ) ;
#85 = EDGE_LOOP ( 'NONE', ( #88, #712, #237, #303, #118, #656, #240, #453, #39, #321 ) ) ;
#86 = LINE ( 'NONE', #518, #476 ) ;
#87 = CARTESIAN_POINT ( 'NONE',  ( -36.37306695894642417, -21.00000000000000000, 29.50000000000000000 ) ) ;
#88 = ORIENTED_EDGE ( 'NONE', *, *, #110, .F. ) ;
#89 = CIRCLE ( 'NONE', #552, 7.500000000000000000 ) ;
#90 = LINE ( 'NONE', #379, #654 ) ;
#91 = DIRECTION ( 'NONE',  ( -0.000000000000000000, -0.000000000000000000, -1.000000000000000000 ) ) ;
#92 = ORIENTED_EDGE ( 'NONE', *, *, #207, .F. ) ;
#93 = PLANE ( 'NONE',  #269 ) ;
#94 = DIRECTION ( 'NONE',  ( 1.000000000000000000, 0.000000000000000000, -0.000000000000000000 ) ) ;
#95 = ORIENTED_EDGE ( 'NONE', *, *, #441, .F. ) ;
#96 = DIRECTION ( 'NONE',  ( -0.000000000000000000, -0.000000000000000000, -1.000000000000000000 ) ) ;
#97 = FACE_OUTER_BOUND ( 'NONE', #132, .T. ) ;
#98 = ORIENTED_EDGE ( 'NONE', *, *, #510, .T. ) ;
#99 = ADVANCED_FACE ( 'NONE', ( #429 ), #525, .T. ) ;
#100 = CARTESIAN_POINT ( 'NONE',  ( 31.37306696058862698, -29.66025403879251598, -7.500000000000000000 ) ) ;
#101 = CARTESIAN_POINT ( 'NONE',  ( 0.000000000000000000, 0.000000000000000000, 29.50000000000000000 ) ) ;
#102 = CIRCLE ( 'NONE', #674, 10.00000000000000533 ) ;
#103 = EDGE_CURVE ( 'NONE', #222, #336, #673, .T. ) ;
#104 = ORIENTED_EDGE ( 'NONE', *, *, #259, .T. ) ;
#105 = DIRECTION ( 'NONE',  ( 4.788548727557914186E-17, -1.000000000000000000, 0.000000000000000000 ) ) ;
#106 = DIRECTION ( 'NONE',  ( 1.000000000000000000, 0.000000000000000000, 0.000000000000000000 ) ) ;
#107 = ORIENTED_EDGE ( 'NONE', *, *, #294, .F. ) ;
#108 = CARTESIAN_POINT ( 'NONE',  ( 31.37306696058862698, -29.66025403879251598, 7.500000000000000000 ) ) ;
#109 = PLANE ( 'NONE',  #68 ) ;
#110 = EDGE_CURVE ( 'NONE', #503, #341, #305, .T. ) ;
#111 = ORIENTED_EDGE ( 'NONE', *, *, #337, .T. ) ;
#112 = CARTESIAN_POINT ( 'NONE',  ( -28.87306695894642417, -21.00000000000000000, 29.50000000000000000 ) ) ;
#113 = ORIENTED_EDGE ( 'NONE', *, *, #103, .F. ) ;
#114 = VECTOR ( 'NONE', #478, 1000.000000000000114 ) ;
#115 = SHAPE_DEFINITION_REPRESENTATION ( #371, #318 ) ;
#116 = DIRECTION ( 'NONE',  ( -0.8660254037844385966, 0.5000000000000001110, 0.000000000000000000 ) ) ;
#117 = AXIS2_PLACEMENT_3D ( 'NONE', #63, #414, #286 ) ;
#118 = ORIENTED_EDGE ( 'NONE', *, *, #296, .T. ) ;
#119 = CARTESIAN_POINT ( 'NONE',  ( 36.37306695894642417, -21.00000000000000000, -7.500000000000000000 ) ) ;
#120 = VERTEX_POINT ( 'NONE', #380 ) ;
#121 = DIRECTION ( 'NONE',  ( -0.000000000000000000, -0.000000000000000000, -1.000000000000000000 ) ) ;
#122 = DIRECTION ( 'NONE',  ( 1.000000000000000000, 0.000000000000000000, -0.000000000000000000 ) ) ;
#123 = ORIENTED_EDGE ( 'NONE', *, *, #591, .F. ) ;
#124 = PRODUCT_DEFINITION ( 'UNKNOWN', '', #421, #593 ) ;
#125 =( GEOMETRIC_REPRESENTATION_CONTEXT ( 3 ) GLOBAL_UNCERTAINTY_ASSIGNED_CONTEXT ( ( #544 ) ) GLOBAL_UNIT_ASSIGNED_CONTEXT ( ( #42, #645, #651 ) ) REPRESENTATION_CONTEXT ( 'NONE', 'WORKASPACE' ) );
#126 = AXIS2_PLACEMENT_3D ( 'NONE', #416, #191, #627 ) ;
#127 = CIRCLE ( 'NONE', #18, 7.500000000000000000 ) ;
#128 = CARTESIAN_POINT ( 'NONE',  ( 0.000000000000000000, 42.00000000000000000, 7.500000000000000000 ) ) ;
#129 = EDGE_CURVE ( 'NONE', #551, #578, #597, .T. ) ;
#130 = EDGE_LOOP ( 'NONE', ( #447, #485, #76, #249 ) ) ;
#131 = CARTESIAN_POINT ( 'NONE',  ( 43.87306695894642417, -21.00000000000000000, 7.500000000000000000 ) ) ;
#132 = EDGE_LOOP ( 'NONE', ( #293, #51, #571, #611 ) ) ;
#133 = DIRECTION ( 'NONE',  ( 0.8660254037844384856, -0.5000000000000001110, 0.000000000000000000 ) ) ;
#134 = EDGE_CURVE ( 'NONE', #253, #316, #473, .T. ) ;
#135 = FACE_OUTER_BOUND ( 'NONE', #130, .T. ) ;
#136 = CIRCLE ( 'NONE', #339, 7.500000000000000000 ) ;
#137 = VECTOR ( 'NONE', #537, 1000.000000000000000 ) ;
#138 = CARTESIAN_POINT ( 'NONE',  ( 0.000000000000000000, 42.00000000000000000, 29.50000000000000000 ) ) ;
#139 = CARTESIAN_POINT ( 'NONE',  ( 36.37306695894642417, -21.00000000000000000, 7.500000000000000000 ) ) ;
#140 = LINE ( 'NONE', #144, #487 ) ;
#141 = DIRECTION ( 'NONE',  ( -1.000000000000000000, 0.000000000000000000, 0.000000000000000000 ) ) ;
#142 = VERTEX_POINT ( 'NONE', #302 ) ;
#143 = EDGE_CURVE ( 'NONE', #479, #222, #420, .T. ) ;
#144 = CARTESIAN_POINT ( 'NONE',  ( 9.999999999999998224, 42.00000000189626803, 7.500000000000000000 ) ) ;
#145 = PLANE ( 'NONE',  #246 ) ;
#146 = EDGE_LOOP ( 'NONE', ( #516, #660 ) ) ;
#147 = CIRCLE ( 'NONE', #619, 7.500000000000000000 ) ;
#148 = CARTESIAN_POINT ( 'NONE',  ( 1.040834085586084257E-14, -11.54700538379251462, -7.500000000000000000 ) ) ;
#149 = CARTESIAN_POINT ( 'NONE',  ( 36.37306695894642417, -21.00000000000000000, 29.50000000000000000 ) ) ;
#150 = EDGE_LOOP ( 'NONE', ( #708, #367, #632, #219 ) ) ;
#151 = CYLINDRICAL_SURFACE ( 'NONE', #622, 10.00000000000000178 ) ;
#152 = CARTESIAN_POINT ( 'NONE',  ( 28.87306695894642417, -21.00000000000000000, 7.500000000000000000 ) ) ;
#153 = EDGE_CURVE ( 'NONE', #523, #606, #30, .T. ) ;
#154 = ORIENTED_EDGE ( 'NONE', *, *, #69, .T. ) ;
#155 = CARTESIAN_POINT ( 'NONE',  ( 0.000000000000000000, 0.000000000000000000, 29.50000000000000000 ) ) ;
#156 = CYLINDRICAL_SURFACE ( 'NONE', #254, 7.500000000000000000 ) ;
#157 = ORIENTED_EDGE ( 'NONE', *, *, #284, .F. ) ;
#158 = CARTESIAN_POINT ( 'NONE',  ( 9.999999999999994671, 5.773502691896262640, -7.500000000000000000 ) ) ;
#159 = CYLINDRICAL_SURFACE ( 'NONE', #464, 7.500000000000000000 ) ;
#160 = VECTOR ( 'NONE', #696, 1000.000000000000000 ) ;
#161 = AXIS2_PLACEMENT_3D ( 'NONE', #308, #527, #28 ) ;
#162 = ORIENTED_EDGE ( 'NONE', *, *, #262, .T. ) ;
#163 = EDGE_CURVE ( 'NONE', #523, #274, #689, .T. ) ;
#164 = CARTESIAN_POINT ( 'NONE',  ( -9.999999999999998224, 5.773502691896264416, 7.500000000000000000 ) ) ;
#165 = APPLICATION_CONTEXT ( 'automotive_design' ) ;
#166 = ORIENTED_EDGE ( 'NONE', *, *, #438, .T. ) ;
#167 = FACE_BOUND ( 'NONE', #356, .T. ) ;
#168 = PLANE ( 'NONE',  #242 ) ;
#169 = VERTEX_POINT ( 'NONE', #638 ) ;
#170 = DIRECTION ( 'NONE',  ( 1.000000000000000000, 0.000000000000000000, 0.000000000000000000 ) ) ;
#171 = EDGE_LOOP ( 'NONE', ( #683, #123, #44, #636 ) ) ;
#172 = AXIS2_PLACEMENT_3D ( 'NONE', #561, #72, #407 ) ;
#173 = ADVANCED_FACE ( 'NONE', ( #648 ), #595, .T. ) ;
#174 = LINE ( 'NONE', #624, #486 ) ;
#175 = ORIENTED_EDGE ( 'NONE', *, *, #442, .F. ) ;
#176 = EDGE_CURVE ( 'NONE', #490, #592, #136, .T. ) ;
#177 = DIRECTION ( 'NONE',  ( 1.000000000000000000, 0.000000000000000000, 0.000000000000000000 ) ) ;
#178 = ADVANCED_FACE ( 'NONE', ( #97 ), #159, .T. ) ;
#179 = VERTEX_POINT ( 'NONE', #704 ) ;
#180 = EDGE_CURVE ( 'NONE', #253, #142, #53, .T. ) ;
#181 = FACE_OUTER_BOUND ( 'NONE', #281, .T. ) ;
#182 = ORIENTED_EDGE ( 'NONE', *, *, #390, .F. ) ;
#183 = CIRCLE ( 'NONE', #399, 9.999999999999998224 ) ;
#184 = CIRCLE ( 'NONE', #161, 10.00000000000000533 ) ;
#185 = ADVANCED_FACE ( 'NONE', ( #605 ), #109, .T. ) ;
#186 = DIRECTION ( 'NONE',  ( -0.000000000000000000, -0.000000000000000000, -1.000000000000000000 ) ) ;
#187 = EDGE_LOOP ( 'NONE', ( #299, #5, #265, #32 ) ) ;
#188 = LINE ( 'NONE', #363, #377 ) ;
#189 = CARTESIAN_POINT ( 'NONE',  ( -36.37306695894642417, -21.00000000000000000, 29.50000000000000000 ) ) ;
#190 = CYLINDRICAL_SURFACE ( 'NONE', #218, 10.00000000000000178 ) ;
#191 = DIRECTION ( 'NONE',  ( 0.000000000000000000, 0.000000000000000000, 1.000000000000000000 ) ) ;
#192 = VECTOR ( 'NONE', #252, 1000.000000000000114 ) ;
#193 = CARTESIAN_POINT ( 'NONE',  ( 28.87306695894642417, -21.00000000000000000, 29.50000000000000000 ) ) ;
#194 = EDGE_CURVE ( 'NONE', #274, #78, #449, .T. ) ;
#195 = CARTESIAN_POINT ( 'NONE',  ( -9.999999999999998224, 5.773502691896264416, -7.500000000000000000 ) ) ;
#196 = DIRECTION ( 'NONE',  ( -1.000000000000000000, 0.000000000000000000, 0.000000000000000000 ) ) ;
#197 = CARTESIAN_POINT ( 'NONE',  ( -9.999999999999998224, 5.773502691896264416, 7.500000000000000000 ) ) ;
#198 = ORIENTED_EDGE ( 'NONE', *, *, #666, .F. ) ;
#199 = DIRECTION ( 'NONE',  ( 1.000000000000000000, 0.000000000000000000, 0.000000000000000000 ) ) ;
#200 = DIRECTION ( 'NONE',  ( 1.000000000000000000, 0.000000000000000000, 0.000000000000000000 ) ) ;
#201 = ORIENTED_EDGE ( 'NONE', *, *, #563, .T. ) ;
#202 = CIRCLE ( 'NONE', #29, 7.500000000000000000 ) ;
#203 = CARTESIAN_POINT ( 'NONE',  ( -31.37306696058861277, -29.66025403879251243, -7.500000000000000000 ) ) ;
#204 = CIRCLE ( 'NONE', #353, 10.00000000000000533 ) ;
#205 = DIRECTION ( 'NONE',  ( 1.000000000000000000, 0.000000000000000000, 0.000000000000000000 ) ) ;
#206 = ORIENTED_EDGE ( 'NONE', *, *, #442, .T. ) ;
#207 = EDGE_CURVE ( 'NONE', #20, #169, #707, .T. ) ;
#208 = CIRCLE ( 'NONE', #613, 7.500000000000000000 ) ;
#209 = FACE_BOUND ( 'NONE', #146, .T. ) ;
#210 = DIRECTION ( 'NONE',  ( 0.000000000000000000, 0.000000000000000000, 1.000000000000000000 ) ) ;
#211 = ORIENTED_EDGE ( 'NONE', *, *, #658, .F. ) ;
#212 = LINE ( 'NONE', #158, #243 ) ;
#213 = DIRECTION ( 'NONE',  ( 0.5000000000000000000, -0.8660254037844387076, 0.000000000000000000 ) ) ;
#214 = ORIENTED_EDGE ( 'NONE', *, *, #194, .F. ) ;
#215 = DIRECTION ( 'NONE',  ( 1.000000000000000000, 0.000000000000000000, -0.000000000000000000 ) ) ;
#216 = SURFACE_SIDE_STYLE ('',( #493 ) ) ;
#217 = CIRCLE ( 'NONE', #620, 7.500000000000000000 ) ;
#218 = AXIS2_PLACEMENT_3D ( 'NONE', #628, #587, #425 ) ;
#219 = ORIENTED_EDGE ( 'NONE', *, *, #58, .T. ) ;
#220 = DIRECTION ( 'NONE',  ( 1.000000000000000000, 0.000000000000000000, 0.000000000000000000 ) ) ;
#221 = FACE_OUTER_BOUND ( 'NONE', #513, .T. ) ;
#222 = VERTEX_POINT ( 'NONE', #152 ) ;
#223 = DIRECTION ( 'NONE',  ( -0.000000000000000000, -0.000000000000000000, -1.000000000000000000 ) ) ;
#224 = ORIENTED_EDGE ( 'NONE', *, *, #451, .T. ) ;
#225 = DIRECTION ( 'NONE',  ( 0.000000000000000000, 0.000000000000000000, 1.000000000000000000 ) ) ;
#226 = DIRECTION ( 'NONE',  ( 0.000000000000000000, 0.000000000000000000, 1.000000000000000000 ) ) ;
#227 = EDGE_LOOP ( 'NONE', ( #536, #198, #494, #690 ) ) ;
#228 = VECTOR ( 'NONE', #223, 1000.000000000000000 ) ;
#229 = VECTOR ( 'NONE', #448, 1000.000000000000000 ) ;
#230 = EDGE_CURVE ( 'NONE', #592, #490, #147, .T. ) ;
#231 = ADVANCED_FACE ( 'NONE', ( #393 ), #168, .F. ) ;
#232 = DIRECTION ( 'NONE',  ( -0.000000000000000000, -0.000000000000000000, -1.000000000000000000 ) ) ;
#233 = UNCERTAINTY_MEASURE_WITH_UNIT (LENGTH_MEASURE( 1.000000000000000082E-05 ), #713, 'distance_accuracy_value', 'NONE');
#234 = EDGE_LOOP ( 'NONE', ( #439, #679, #465, #646 ) ) ;
#235 = MANIFOLD_SOLID_BREP ( 'Sun Shaft', #677 ) ;
#236 = DIRECTION ( 'NONE',  ( 0.8660254037844384856, -0.5000000000000001110, 0.000000000000000000 ) ) ;
#237 = ORIENTED_EDGE ( 'NONE', *, *, #307, .F. ) ;
#238 = EDGE_CURVE ( 'NONE', #450, #179, #653, .T. ) ;
#239 = DIRECTION ( 'NONE',  ( 1.000000000000000000, 0.000000000000000000, 0.000000000000000000 ) ) ;
#240 = ORIENTED_EDGE ( 'NONE', *, *, #378, .F. ) ;
#241 = ADVANCED_FACE ( 'NONE', ( #50 ), #603, .F. ) ;
#242 = AXIS2_PLACEMENT_3D ( 'NONE', #542, #213, #396 ) ;
#243 = VECTOR ( 'NONE', #548, 1000.000000000000000 ) ;
#244 = CARTESIAN_POINT ( 'NONE',  ( -36.37306695894642417, -21.00000000000000000, -7.500000000000000000 ) ) ;
#245 = ORIENTED_EDGE ( 'NONE', *, *, #373, .F. ) ;
#246 = AXIS2_PLACEMENT_3D ( 'NONE', #423, #23, #374 ) ;
#247 = DIRECTION ( 'NONE',  ( -0.8660254037844385966, -0.4999999999999999445, 0.000000000000000000 ) ) ;
#248 = DIRECTION ( 'NONE',  ( -0.000000000000000000, -0.000000000000000000, -1.000000000000000000 ) ) ;
#249 = ORIENTED_EDGE ( 'NONE', *, *, #25, .T. ) ;
#250 = ADVANCED_FACE ( 'NONE', ( #221 ), #156, .T. ) ;
#251 = DIRECTION ( 'NONE',  ( -1.000000000000000000, 0.000000000000000000, 0.000000000000000000 ) ) ;
#252 = DIRECTION ( 'NONE',  ( -0.8660254037844385966, -0.4999999999999999445, 0.000000000000000000 ) ) ;
#253 = VERTEX_POINT ( 'NONE', #610 ) ;
#254 = AXIS2_PLACEMENT_3D ( 'NONE', #77, #232, #614 ) ;
#255 = VECTOR ( 'NONE', #133, 1000.000000000000227 ) ;
#256 = CARTESIAN_POINT ( 'NONE',  ( -9.999999999999998224, 5.773502691896264416, -7.500000000000000000 ) ) ;
#257 = CARTESIAN_POINT ( 'NONE',  ( -9.999999999999998224, 5.773502691896264416, 7.500000000000000000 ) ) ;
#258 = ORIENTED_EDGE ( 'NONE', *, *, #633, .T. ) ;
#259 = EDGE_CURVE ( 'NONE', #67, #348, #202, .T. ) ;
#260 = CARTESIAN_POINT ( 'NONE',  ( 43.87306695894642417, -21.00000000000000000, 29.50000000000000000 ) ) ;
#261 = DIRECTION ( 'NONE',  ( -0.000000000000000000, -0.000000000000000000, -1.000000000000000000 ) ) ;
#262 = EDGE_CURVE ( 'NONE', #13, #519, #675, .T. ) ;
#263 = FACE_OUTER_BOUND ( 'NONE', #434, .T. ) ;
#264 = CARTESIAN_POINT ( 'NONE',  ( -28.87306695894642417, -21.00000000000000000, 29.50000000000000000 ) ) ;
#265 = ORIENTED_EDGE ( 'NONE', *, *, #474, .T. ) ;
#266 = EDGE_CURVE ( 'NONE', #543, #391, #387, .T. ) ;
#267 = AXIS2_PLACEMENT_3D ( 'NONE', #489, #701, #106 ) ;
#268 = DIRECTION ( 'NONE',  ( 1.000000000000000000, 0.000000000000000000, 0.000000000000000000 ) ) ;
#269 = AXIS2_PLACEMENT_3D ( 'NONE', #388, #534, #215 ) ;
#270 = DIRECTION ( 'NONE',  ( -1.000000000000000000, 0.000000000000000000, 0.000000000000000000 ) ) ;
#271 = ORIENTED_EDGE ( 'NONE', *, *, #591, .T. ) ;
#272 = FACE_OUTER_BOUND ( 'NONE', #639, .T. ) ;
#273 = CARTESIAN_POINT ( 'NONE',  ( 36.37306695894642417, -21.00000000000000000, 29.50000000000000000 ) ) ;
#274 = VERTEX_POINT ( 'NONE', #355 ) ;
#275 = DIRECTION ( 'NONE',  ( 1.000000000000000000, 0.000000000000000000, 0.000000000000000000 ) ) ;
#276 = DIRECTION ( 'NONE',  ( -0.000000000000000000, -0.000000000000000000, -1.000000000000000000 ) ) ;
#277 = ORIENTED_EDGE ( 'NONE', *, *, #468, .T. ) ;
#278 = FACE_OUTER_BOUND ( 'NONE', #187, .T. ) ;
#279 = AXIS2_PLACEMENT_3D ( 'NONE', #189, #641, #470 ) ;
#280 = CARTESIAN_POINT ( 'NONE',  ( 9.999999999999994671, 5.773502691896262640, 7.500000000000000000 ) ) ;
#281 = EDGE_LOOP ( 'NONE', ( #424, #604, #289, #562 ) ) ;
#282 = CARTESIAN_POINT ( 'NONE',  ( -10.00000000000000000, 42.00000000189626093, 7.500000000000000000 ) ) ;
#283 = EDGE_LOOP ( 'NONE', ( #95, #475, #258, #375 ) ) ;
#284 = EDGE_CURVE ( 'NONE', #578, #348, #662, .T. ) ;
#285 = CARTESIAN_POINT ( 'NONE',  ( -7.500000000000000000, 42.00000000000000000, 7.500000000000000000 ) ) ;
#286 = DIRECTION ( 'NONE',  ( 1.000000000000000000, 0.000000000000000000, -0.000000000000000000 ) ) ;
#287 =( NAMED_UNIT ( * ) PLANE_ANGLE_UNIT ( ) SI_UNIT ( $, .RADIAN. ) );
#288 = DIRECTION ( 'NONE',  ( -0.000000000000000000, -0.000000000000000000, -1.000000000000000000 ) ) ;
#289 = ORIENTED_EDGE ( 'NONE', *, *, #143, .T. ) ;
#290 = VECTOR ( 'NONE', #309, 1000.000000000000000 ) ;
#291 = AXIS2_PLACEMENT_3D ( 'NONE', #598, #436, #105 ) ;
#292 = LINE ( 'NONE', #570, #709 ) ;
#293 = ORIENTED_EDGE ( 'NONE', *, *, #685, .F. ) ;
#294 = EDGE_CURVE ( 'NONE', #523, #503, #292, .T. ) ;
#295 = CARTESIAN_POINT ( 'NONE',  ( -7.500000000000000000, 42.00000000000000000, 29.50000000000000000 ) ) ;
#296 = EDGE_CURVE ( 'NONE', #330, #391, #568, .T. ) ;
#297 = ORIENTED_EDGE ( 'NONE', *, *, #474, .F. ) ;
#298 = CARTESIAN_POINT ( 'NONE',  ( 0.000000000000000000, 42.00000000000000000, 7.500000000000000000 ) ) ;
#299 = ORIENTED_EDGE ( 'NONE', *, *, #397, .F. ) ;
#300 = VECTOR ( 'NONE', #580, 1000.000000000000000 ) ;
#301 = FACE_OUTER_BOUND ( 'NONE', #150, .T. ) ;
#302 = CARTESIAN_POINT ( 'NONE',  ( 9.999999999999998224, 42.00000000189626803, 7.500000000000000000 ) ) ;
#303 = ORIENTED_EDGE ( 'NONE', *, *, #579, .F. ) ;
#304 = LINE ( 'NONE', #83, #70 ) ;
#305 = LINE ( 'NONE', #195, #192 ) ;
#306 = ORIENTED_EDGE ( 'NONE', *, *, #310, .T. ) ;
#307 = EDGE_CURVE ( 'NONE', #471, #78, #183, .T. ) ;
#308 = CARTESIAN_POINT ( 'NONE',  ( -36.37306695894642417, -21.00000000000000000, -7.500000000000000000 ) ) ;
#309 = DIRECTION ( 'NONE',  ( -0.000000000000000000, -0.000000000000000000, -1.000000000000000000 ) ) ;
#310 = EDGE_CURVE ( 'NONE', #479, #381, #89, .T. ) ;
#311 = VECTOR ( 'NONE', #236, 1000.000000000000227 ) ;
#312 = CIRCLE ( 'NONE', #608, 7.500000000000000000 ) ;
#313 = DIRECTION ( 'NONE',  ( 0.000000000000000000, 0.000000000000000000, 1.000000000000000000 ) ) ;
#314 = DIRECTION ( 'NONE',  ( -0.000000000000000000, -0.000000000000000000, -1.000000000000000000 ) ) ;
#315 = ADVANCED_FACE ( 'NONE', ( #12 ), #75, .T. ) ;
#316 = VERTEX_POINT ( 'NONE', #404 ) ;
#317 = CARTESIAN_POINT ( 'NONE',  ( 7.500000000000000000, 9.184850993605147944E-16, 29.50000000000000000 ) ) ;
#318 = ADVANCED_BREP_SHAPE_REPRESENTATION ( 'Carrier', ( #235, #43 ), #412 ) ;
#319 = EDGE_CURVE ( 'NONE', #569, #511, #174, .T. ) ;
#320 = CARTESIAN_POINT ( 'NONE',  ( 43.87306695894642417, -21.00000000000000000, 29.50000000000000000 ) ) ;
#321 = ORIENTED_EDGE ( 'NONE', *, *, #366, .F. ) ;
#322 = LINE ( 'NONE', #346, #631 ) ;
#323 = FILL_AREA_STYLE_COLOUR ( '', #6 ) ;
#324 = ORIENTED_EDGE ( 'NONE', *, *, #176, .F. ) ;
#325 = VECTOR ( 'NONE', #555, 1000.000000000000000 ) ;
#326 = ADVANCED_FACE ( 'NONE', ( #343 ), #564, .F. ) ;
#327 = DIRECTION ( 'NONE',  ( -1.000000000000000000, 0.000000000000000000, 0.000000000000000000 ) ) ;
#328 = CIRCLE ( 'NONE', #401, 7.500000000000000000 ) ;
#329 = DIRECTION ( 'NONE',  ( 0.000000000000000000, 0.000000000000000000, 1.000000000000000000 ) ) ;
#330 = VERTEX_POINT ( 'NONE', #617 ) ;
#331 = LINE ( 'NONE', #706, #137 ) ;
#332 = DIRECTION ( 'NONE',  ( 1.000000000000000000, 0.000000000000000000, 0.000000000000000000 ) ) ;
#333 = ORIENTED_EDGE ( 'NONE', *, *, #110, .T. ) ;
#334 = CARTESIAN_POINT ( 'NONE',  ( 9.999999999999994671, 5.773502691896262640, 7.500000000000000000 ) ) ;
#335 = DIRECTION ( 'NONE',  ( -0.000000000000000000, -0.000000000000000000, -1.000000000000000000 ) ) ;
#336 = VERTEX_POINT ( 'NONE', #131 ) ;
#337 = EDGE_CURVE ( 'NONE', #618, #569, #573, .T. ) ;
#338 = DIRECTION ( 'NONE',  ( 1.000000000000000000, 0.000000000000000000, 0.000000000000000000 ) ) ;
#339 = AXIS2_PLACEMENT_3D ( 'NONE', #437, #599, #332 ) ;
#340 = SURFACE_STYLE_USAGE ( .BOTH. , #216 ) ;
#341 = VERTEX_POINT ( 'NONE', #62 ) ;
#342 = AXIS2_PLACEMENT_3D ( 'NONE', #149, #81, #94 ) ;
#343 = FACE_OUTER_BOUND ( 'NONE', #85, .T. ) ;
#344 = ADVANCED_FACE ( 'NONE', ( #181 ), #350, .T. ) ;
#345 = EDGE_LOOP ( 'NONE', ( #54, #175, #663, #271 ) ) ;
#346 = CARTESIAN_POINT ( 'NONE',  ( 41.37306696058862343, -12.33974596310373784, 7.500000000000000000 ) ) ;
#347 = DIRECTION ( 'NONE',  ( 0.000000000000000000, 0.000000000000000000, 1.000000000000000000 ) ) ;
#348 = VERTEX_POINT ( 'NONE', #285 ) ;
#349 = DIRECTION ( 'NONE',  ( 0.000000000000000000, 0.000000000000000000, 1.000000000000000000 ) ) ;
#350 = CYLINDRICAL_SURFACE ( 'NONE', #539, 7.500000000000000000 ) ;
#351 = ORIENTED_EDGE ( 'NONE', *, *, #207, .T. ) ;
#352 = AXIS2_PLACEMENT_3D ( 'NONE', #87, #481, #635 ) ;
#353 = AXIS2_PLACEMENT_3D ( 'NONE', #445, #52, #268 ) ;
#354 = DIRECTION ( 'NONE',  ( 1.000000000000000000, 0.000000000000000000, 0.000000000000000000 ) ) ;
#355 = CARTESIAN_POINT ( 'NONE',  ( -10.00000000000000000, 42.00000000189626093, 7.500000000000000000 ) ) ;
#356 = EDGE_LOOP ( 'NONE', ( #443, #547 ) ) ;
#357 = DIRECTION ( 'NONE',  ( -1.000000000000000000, 0.000000000000000000, 0.000000000000000000 ) ) ;
#358 = ORIENTED_EDGE ( 'NONE', *, *, #658, .T. ) ;
#359 = DIRECTION ( 'NONE',  ( -0.000000000000000000, -0.000000000000000000, -1.000000000000000000 ) ) ;
#360 = CARTESIAN_POINT ( 'NONE',  ( 9.999999999999994671, 5.773502691896262640, 7.500000000000000000 ) ) ;
#361 = AXIS2_PLACEMENT_3D ( 'NONE', #14, #671, #239 ) ;
#362 = ADVANCED_FACE ( 'NONE', ( #400 ), #506, .T. ) ;
#363 = CARTESIAN_POINT ( 'NONE',  ( -46.37306695894642417, -21.00000000000000000, 7.500000000000000000 ) ) ;
#364 = CARTESIAN_POINT ( 'NONE',  ( 7.500000000000000000, 42.00000000000000000, 7.500000000000000000 ) ) ;
#365 = ADVANCED_FACE ( 'NONE', ( #409 ), #621, .T. ) ;
#366 = EDGE_CURVE ( 'NONE', #341, #589, #102, .T. ) ;
#367 = ORIENTED_EDGE ( 'NONE', *, *, #682, .F. ) ;
#368 = FACE_OUTER_BOUND ( 'NONE', #234, .T. ) ;
#369 = LINE ( 'NONE', #535, #57 ) ;
#370 = ORIENTED_EDGE ( 'NONE', *, *, #230, .F. ) ;
#371 = PRODUCT_DEFINITION_SHAPE ( 'NONE', 'NONE',  #124 ) ;
#372 = LINE ( 'NONE', #148, #255 ) ;
#373 = EDGE_CURVE ( 'NONE', #20, #120, #687, .T. ) ;
#374 = DIRECTION ( 'NONE',  ( -0.8660254037844384856, 0.5000000000000001110, 0.000000000000000000 ) ) ;
#375 = ORIENTED_EDGE ( 'NONE', *, *, #366, .T. ) ;
#376 = VECTOR ( 'NONE', #574, 1000.000000000000114 ) ;
#377 = VECTOR ( 'NONE', #22, 1000.000000000000000 ) ;
#378 = EDGE_CURVE ( 'NONE', #456, #543, #372, .T. ) ;
#379 = CARTESIAN_POINT ( 'NONE',  ( 31.37306696058862698, -29.66025403879251598, 7.500000000000000000 ) ) ;
#380 = CARTESIAN_POINT ( 'NONE',  ( -43.87306695894642417, -21.00000000000000000, 29.50000000000000000 ) ) ;
#381 = VERTEX_POINT ( 'NONE', #260 ) ;
#382 = DIRECTION ( 'NONE',  ( -0.000000000000000000, -0.000000000000000000, -1.000000000000000000 ) ) ;
#383 = ORIENTED_EDGE ( 'NONE', *, *, #685, .T. ) ;
#384 = FACE_OUTER_BOUND ( 'NONE', #227, .T. ) ;
#385 = CARTESIAN_POINT ( 'NONE',  ( 9.999999999999994671, 5.773502691896262640, 7.500000000000000000 ) ) ;
#386 = EDGE_LOOP ( 'NONE', ( #566, #277, #104, #157 ) ) ;
#387 = CIRCLE ( 'NONE', #430, 10.00000000000000178 ) ;
#388 = CARTESIAN_POINT ( 'NONE',  ( -36.37306695894642417, -21.00000000000000000, 7.500000000000000000 ) ) ;
#389 = AXIS2_PLACEMENT_3D ( 'NONE', #298, #469, #199 ) ;
#390 = EDGE_CURVE ( 'NONE', #503, #78, #637, .T. ) ;
#391 = VERTEX_POINT ( 'NONE', #684 ) ;
#392 = LINE ( 'NONE', #334, #642 ) ;
#393 = FACE_OUTER_BOUND ( 'NONE', #482, .T. ) ;
#394 = ORIENTED_EDGE ( 'NONE', *, *, #549, .F. ) ;
#395 = FACE_BOUND ( 'NONE', #402, .T. ) ;
#396 = DIRECTION ( 'NONE',  ( 0.8660254037844385966, 0.4999999999999999445, 0.000000000000000000 ) ) ;
#397 = EDGE_CURVE ( 'NONE', #456, #511, #304, .T. ) ;
#398 = ORIENTED_EDGE ( 'NONE', *, *, #65, .F. ) ;
#399 = AXIS2_PLACEMENT_3D ( 'NONE', #557, #515, #170 ) ;
#400 = FACE_OUTER_BOUND ( 'NONE', #652, .T. ) ;
#401 = AXIS2_PLACEMENT_3D ( 'NONE', #64, #349, #74 ) ;
#402 = EDGE_LOOP ( 'NONE', ( #113, #582 ) ) ;
#403 = CIRCLE ( 'NONE', #664, 7.500000000000000000 ) ;
#404 = CARTESIAN_POINT ( 'NONE',  ( 41.37306696058862343, -12.33974596310373784, 7.500000000000000000 ) ) ;
#405 = EDGE_LOOP ( 'NONE', ( #92, #600, #24, #531 ) ) ;
#406 = PRODUCT_CONTEXT ( 'NONE', #61, 'mechanical' ) ;
#407 = DIRECTION ( 'NONE',  ( 1.000000000000000000, 0.000000000000000000, -0.000000000000000000 ) ) ;
#408 = CARTESIAN_POINT ( 'NONE',  ( 1.040834085586084257E-14, -11.54700538379251462, 7.500000000000000000 ) ) ;
#409 = FACE_OUTER_BOUND ( 'NONE', #283, .T. ) ;
#410 = MECHANICAL_DESIGN_GEOMETRIC_PRESENTATION_REPRESENTATION (  '', ( #16 ), #125 ) ;
#411 = ORIENTED_EDGE ( 'NONE', *, *, #517, .T. ) ;
#412 =( GEOMETRIC_REPRESENTATION_CONTEXT ( 3 ) GLOBAL_UNCERTAINTY_ASSIGNED_CONTEXT ( ( #233 ) ) GLOBAL_UNIT_ASSIGNED_CONTEXT ( ( #713, #287, #661 ) ) REPRESENTATION_CONTEXT ( 'NONE', 'WORKASPACE' ) );
#413 = DIRECTION ( 'NONE',  ( 0.000000000000000000, 0.000000000000000000, 1.000000000000000000 ) ) ;
#414 = DIRECTION ( 'NONE',  ( 0.000000000000000000, 0.000000000000000000, 1.000000000000000000 ) ) ;
#415 = CARTESIAN_POINT ( 'NONE',  ( 9.999999999999998224, 42.00000000189626803, -7.500000000000000000 ) ) ;
#416 = CARTESIAN_POINT ( 'NONE',  ( 0.000000000000000000, 42.00000000000000000, 29.50000000000000000 ) ) ;
#417 = EDGE_CURVE ( 'NONE', #519, #543, #90, .T. ) ;
#418 = CYLINDRICAL_SURFACE ( 'NONE', #520, 7.500000000000000000 ) ;
#419 = ADVANCED_FACE ( 'NONE', ( #368 ), #190, .T. ) ;
#420 = LINE ( 'NONE', #686, #290 ) ;
#421 = PRODUCT_DEFINITION_FORMATION_WITH_SPECIFIED_SOURCE ( 'ANY', '', #514, .NOT_KNOWN. ) ;
#422 = DIRECTION ( 'NONE',  ( 0.000000000000000000, 0.000000000000000000, 1.000000000000000000 ) ) ;
#423 = CARTESIAN_POINT ( 'NONE',  ( 1.040834085586084257E-14, -11.54700538379251462, 7.500000000000000000 ) ) ;
#424 = ORIENTED_EDGE ( 'NONE', *, *, #40, .F. ) ;
#425 = DIRECTION ( 'NONE',  ( -1.000000000000000000, 0.000000000000000000, 0.000000000000000000 ) ) ;
#426 = DIRECTION ( 'NONE',  ( -4.788548727557914186E-17, 1.000000000000000000, 0.000000000000000000 ) ) ;
#427 = ORIENTED_EDGE ( 'NONE', *, *, #633, .F. ) ;
#428 = CARTESIAN_POINT ( 'NONE',  ( 7.500000000000000000, 9.184850993605147944E-16, 7.500000000000000000 ) ) ;
#429 = FACE_OUTER_BOUND ( 'NONE', #59, .T. ) ;
#430 = AXIS2_PLACEMENT_3D ( 'NONE', #119, #347, #504 ) ;
#431 = VECTOR ( 'NONE', #634, 1000.000000000000000 ) ;
#432 = FACE_OUTER_BOUND ( 'NONE', #467, .T. ) ;
#433 = PRESENTATION_STYLE_ASSIGNMENT (( #340 ) ) ;
#434 = EDGE_LOOP ( 'NONE', ( #668, #411, #111, #297, #162, #98, #623, #459, #166, #596 ) ) ;
#435 = VECTOR ( 'NONE', #91, 1000.000000000000000 ) ;
#436 = DIRECTION ( 'NONE',  ( -1.000000000000000000, -4.788548727557914186E-17, 0.000000000000000000 ) ) ;
#437 = CARTESIAN_POINT ( 'NONE',  ( 0.000000000000000000, 0.000000000000000000, 29.50000000000000000 ) ) ;
#438 = EDGE_CURVE ( 'NONE', #142, #274, #698, .T. ) ;
#439 = ORIENTED_EDGE ( 'NONE', *, *, #337, .F. ) ;
#440 = DIRECTION ( 'NONE',  ( 0.000000000000000000, 0.000000000000000000, 1.000000000000000000 ) ) ;
#441 = EDGE_CURVE ( 'NONE', #618, #589, #188, .T. ) ;
#442 = EDGE_CURVE ( 'NONE', #142, #471, #140, .T. ) ;
#443 = ORIENTED_EDGE ( 'NONE', *, *, #58, .F. ) ;
#444 = VECTOR ( 'NONE', #261, 1000.000000000000000 ) ;
#445 = CARTESIAN_POINT ( 'NONE',  ( -36.37306695894642417, -21.00000000000000000, 7.500000000000000000 ) ) ;
#446 = AXIS2_PLACEMENT_3D ( 'NONE', #710, #657, #545 ) ;
#447 = ORIENTED_EDGE ( 'NONE', *, *, #378, .T. ) ;
#448 = DIRECTION ( 'NONE',  ( -0.000000000000000000, -0.000000000000000000, -1.000000000000000000 ) ) ;
#449 = LINE ( 'NONE', #282, #697 ) ;
#450 = VERTEX_POINT ( 'NONE', #428 ) ;
#451 = EDGE_CURVE ( 'NONE', #592, #450, #86, .T. ) ;
#452 = CARTESIAN_POINT ( 'NONE',  ( 1.040834085586084257E-14, -11.54700538379251462, 7.500000000000000000 ) ) ;
#453 = ORIENTED_EDGE ( 'NONE', *, *, #397, .T. ) ;
#454 = AXIS2_PLACEMENT_3D ( 'NONE', #4, #226, #122 ) ;
#455 = DIRECTION ( 'NONE',  ( 0.5000000000000001110, 0.8660254037844385966, -0.000000000000000000 ) ) ;
#456 = VERTEX_POINT ( 'NONE', #19 ) ;
#457 = CARTESIAN_POINT ( 'NONE',  ( 9.999999999999994671, 5.773502691896262640, -7.500000000000000000 ) ) ;
#458 = ADVANCED_FACE ( 'NONE', ( #532 ), #688, .T. ) ;
#459 = ORIENTED_EDGE ( 'NONE', *, *, #180, .T. ) ;
#460 = DIRECTION ( 'NONE',  ( 0.000000000000000000, 0.000000000000000000, 1.000000000000000000 ) ) ;
#461 = DIRECTION ( 'NONE',  ( -0.000000000000000000, -0.000000000000000000, -1.000000000000000000 ) ) ;
#462 = FACE_OUTER_BOUND ( 'NONE', #386, .T. ) ;
#463 = DIRECTION ( 'NONE',  ( 0.000000000000000000, 0.000000000000000000, 1.000000000000000000 ) ) ;
#464 = AXIS2_PLACEMENT_3D ( 'NONE', #273, #335, #659 ) ;
#465 = ORIENTED_EDGE ( 'NONE', *, *, #502, .T. ) ;
#466 = CARTESIAN_POINT ( 'NONE',  ( 0.000000000000000000, 42.00000000000000000, 7.500000000000000000 ) ) ;
#467 = EDGE_LOOP ( 'NONE', ( #182, #107, #73, #497 ) ) ;
#468 = EDGE_CURVE ( 'NONE', #551, #67, #678, .T. ) ;
#469 = DIRECTION ( 'NONE',  ( 0.000000000000000000, 0.000000000000000000, 1.000000000000000000 ) ) ;
#470 = DIRECTION ( 'NONE',  ( -1.000000000000000000, 0.000000000000000000, 0.000000000000000000 ) ) ;
#471 = VERTEX_POINT ( 'NONE', #415 ) ;
#472 = CARTESIAN_POINT ( 'NONE',  ( -36.37306695894642417, -21.00000000000000000, 29.50000000000000000 ) ) ;
#473 = LINE ( 'NONE', #360, #376 ) ;
#474 = EDGE_CURVE ( 'NONE', #13, #569, #626, .T. ) ;
#475 = ORIENTED_EDGE ( 'NONE', *, *, #517, .F. ) ;
#476 = VECTOR ( 'NONE', #691, 1000.000000000000000 ) ;
#477 = CARTESIAN_POINT ( 'NONE',  ( 36.37306695894642417, -21.00000000000000000, 7.500000000000000000 ) ) ;
#478 = DIRECTION ( 'NONE',  ( -0.8660254037844385966, -0.4999999999999999445, 0.000000000000000000 ) ) ;
#479 = VERTEX_POINT ( 'NONE', #193 ) ;
#480 = CARTESIAN_POINT ( 'NONE',  ( -9.999999999999998224, 5.773502691896264416, -7.500000000000000000 ) ) ;
#481 = DIRECTION ( 'NONE',  ( 0.000000000000000000, 0.000000000000000000, 1.000000000000000000 ) ) ;
#482 = EDGE_LOOP ( 'NONE', ( #333, #427, #649, #538 ) ) ;
#483 = FACE_BOUND ( 'NONE', #82, .T. ) ;
#484 = CARTESIAN_POINT ( 'NONE',  ( -7.500000000000000000, 0.000000000000000000, 29.50000000000000000 ) ) ;
#485 = ORIENTED_EDGE ( 'NONE', *, *, #417, .F. ) ;
#486 = VECTOR ( 'NONE', #461, 1000.000000000000000 ) ;
#487 = VECTOR ( 'NONE', #640, 1000.000000000000000 ) ;
#488 = DIRECTION ( 'NONE',  ( -0.000000000000000000, -0.000000000000000000, -1.000000000000000000 ) ) ;
#489 = CARTESIAN_POINT ( 'NONE',  ( 0.000000000000000000, 0.000000000000000000, 7.500000000000000000 ) ) ;
#490 = VERTEX_POINT ( 'NONE', #80 ) ;
#491 = ADVANCED_FACE ( 'NONE', ( #301 ), #418, .T. ) ;
#492 = CARTESIAN_POINT ( 'NONE',  ( -31.37306696058861277, -29.66025403879251243, 7.500000000000000000 ) ) ;
#493 = SURFACE_STYLE_FILL_AREA ( #501 ) ;
#494 = ORIENTED_EDGE ( 'NONE', *, *, #510, .F. ) ;
#495 = PLANE ( 'NONE',  #291 ) ;
#496 = DIRECTION ( 'NONE',  ( 1.000000000000000000, 0.000000000000000000, -0.000000000000000000 ) ) ;
#497 = ORIENTED_EDGE ( 'NONE', *, *, #194, .T. ) ;
#498 = VECTOR ( 'NONE', #426, 1000.000000000000000 ) ;
#499 = AXIS2_PLACEMENT_3D ( 'NONE', #155, #382, #327 ) ;
#500 = PLANE ( 'NONE',  #446 ) ;
#501 = FILL_AREA_STYLE ('',( #323 ) ) ;
#502 = EDGE_CURVE ( 'NONE', #589, #511, #184, .T. ) ;
#503 = VERTEX_POINT ( 'NONE', #256 ) ;
#504 = DIRECTION ( 'NONE',  ( 1.000000000000000000, 0.000000000000000000, 0.000000000000000000 ) ) ;
#505 = ORIENTED_EDGE ( 'NONE', *, *, #238, .F. ) ;
#506 = PLANE ( 'NONE',  #454 ) ;
#507 = PLANE ( 'NONE',  #117 ) ;
#508 = AXIS2_PLACEMENT_3D ( 'NONE', #509, #9, #196 ) ;
#509 = CARTESIAN_POINT ( 'NONE',  ( -36.37306695894642417, -21.00000000000000000, 7.500000000000000000 ) ) ;
#510 = EDGE_CURVE ( 'NONE', #519, #316, #575, .T. ) ;
#511 = VERTEX_POINT ( 'NONE', #203 ) ;
#512 = CARTESIAN_POINT ( 'NONE',  ( 36.37306695894642417, -21.00000000000000000, 29.50000000000000000 ) ) ;
#513 = EDGE_LOOP ( 'NONE', ( #702, #324, #2, #358 ) ) ;
#514 = PRODUCT ( 'Carrier', 'Carrier', '', ( #406 ) ) ;
#515 = DIRECTION ( 'NONE',  ( 0.000000000000000000, 0.000000000000000000, 1.000000000000000000 ) ) ;
#516 = ORIENTED_EDGE ( 'NONE', *, *, #694, .F. ) ;
#517 = EDGE_CURVE ( 'NONE', #606, #618, #204, .T. ) ;
#518 = CARTESIAN_POINT ( 'NONE',  ( 7.500000000000000000, 9.184850993605147944E-16, 29.50000000000000000 ) ) ;
#519 = VERTEX_POINT ( 'NONE', #108 ) ;
#520 = AXIS2_PLACEMENT_3D ( 'NONE', #138, #524, #251 ) ;
#521 = DIRECTION ( 'NONE',  ( -1.000000000000000000, 0.000000000000000000, 0.000000000000000000 ) ) ;
#522 = DIRECTION ( 'NONE',  ( 1.000000000000000000, 0.000000000000000000, 0.000000000000000000 ) ) ;
#523 = VERTEX_POINT ( 'NONE', #164 ) ;
#524 = DIRECTION ( 'NONE',  ( -0.000000000000000000, -0.000000000000000000, -1.000000000000000000 ) ) ;
#525 = CYLINDRICAL_SURFACE ( 'NONE', #279, 7.500000000000000000 ) ;
#526 = ORIENTED_EDGE ( 'NONE', *, *, #682, .T. ) ;
#527 = DIRECTION ( 'NONE',  ( 0.000000000000000000, 0.000000000000000000, 1.000000000000000000 ) ) ;
#528 = DIRECTION ( 'NONE',  ( 0.000000000000000000, 0.000000000000000000, 1.000000000000000000 ) ) ;
#529 = AXIS2_PLACEMENT_3D ( 'NONE', #577, #528, #84 ) ;
#530 = PRESENTATION_LAYER_ASSIGNMENT (  '', '', ( #16 ) ) ;
#531 = ORIENTED_EDGE ( 'NONE', *, *, #694, .T. ) ;
#532 = FACE_OUTER_BOUND ( 'NONE', #556, .T. ) ;
#533 = CARTESIAN_POINT ( 'NONE',  ( 0.000000000000000000, 42.00000000000000000, 7.500000000000000000 ) ) ;
#534 = DIRECTION ( 'NONE',  ( 0.000000000000000000, 0.000000000000000000, 1.000000000000000000 ) ) ;
#535 = CARTESIAN_POINT ( 'NONE',  ( 1.040834085586084257E-14, -11.54700538379251462, 7.500000000000000000 ) ) ;
#536 = ORIENTED_EDGE ( 'NONE', *, *, #266, .T. ) ;
#537 = DIRECTION ( 'NONE',  ( -0.000000000000000000, -0.000000000000000000, -1.000000000000000000 ) ) ;
#538 = ORIENTED_EDGE ( 'NONE', *, *, #294, .T. ) ;
#539 = AXIS2_PLACEMENT_3D ( 'NONE', #66, #288, #357 ) ;
#540 = AXIS2_PLACEMENT_3D ( 'NONE', #472, #422, #572 ) ;
#541 = LINE ( 'NONE', #602, #229 ) ;
#542 = CARTESIAN_POINT ( 'NONE',  ( -9.999999999999998224, 5.773502691896264416, 7.500000000000000000 ) ) ;
#543 = VERTEX_POINT ( 'NONE', #100 ) ;
#544 = UNCERTAINTY_MEASURE_WITH_UNIT (LENGTH_MEASURE( 1.000000000000000082E-05 ), #42, 'distance_accuracy_value', 'NONE');
#545 = DIRECTION ( 'NONE',  ( 0.8660254037844385966, 0.4999999999999999445, 0.000000000000000000 ) ) ;
#546 = CARTESIAN_POINT ( 'NONE',  ( -36.37306695894642417, -21.00000000000000000, 29.50000000000000000 ) ) ;
#547 = ORIENTED_EDGE ( 'NONE', *, *, #259, .F. ) ;
#548 = DIRECTION ( 'NONE',  ( 0.000000000000000000, 1.000000000000000000, 0.000000000000000000 ) ) ;
#549 = EDGE_CURVE ( 'NONE', #120, #676, #541, .T. ) ;
#550 = DIRECTION ( 'NONE',  ( 0.000000000000000000, 0.000000000000000000, 1.000000000000000000 ) ) ;
#551 = VERTEX_POINT ( 'NONE', #41 ) ;
#552 = AXIS2_PLACEMENT_3D ( 'NONE', #512, #413, #177 ) ;
#553 = CIRCLE ( 'NONE', #31, 7.500000000000000000 ) ;
#554 = APPLICATION_PROTOCOL_DEFINITION ( 'draft international standard', 'automotive_design', 1998, #61 ) ;
#555 = DIRECTION ( 'NONE',  ( -0.000000000000000000, -0.000000000000000000, -1.000000000000000000 ) ) ;
#556 = EDGE_LOOP ( 'NONE', ( #670, #214, #693, #206 ) ) ;
#557 = CARTESIAN_POINT ( 'NONE',  ( 0.000000000000000000, 42.00000000000000000, -7.500000000000000000 ) ) ;
#558 = FACE_OUTER_BOUND ( 'NONE', #47, .T. ) ;
#559 = ADVANCED_FACE ( 'NONE', ( #272 ), #650, .T. ) ;
#560 = CARTESIAN_POINT ( 'NONE',  ( -43.87306695894642417, -21.00000000000000000, 7.500000000000000000 ) ) ;
#561 = CARTESIAN_POINT ( 'NONE',  ( -36.37306695894642417, -21.00000000000000000, -7.500000000000000000 ) ) ;
#562 = ORIENTED_EDGE ( 'NONE', *, *, #103, .T. ) ;
#563 = EDGE_CURVE ( 'NONE', #169, #676, #553, .T. ) ;
#564 = PLANE ( 'NONE',  #172 ) ;
#565 = AXIS2_PLACEMENT_3D ( 'NONE', #477, #440, #220 ) ;
#566 = ORIENTED_EDGE ( 'NONE', *, *, #129, .F. ) ;
#567 = CARTESIAN_POINT ( 'NONE',  ( 0.000000000000000000, 0.000000000000000000, 0.000000000000000000 ) ) ;
#568 = LINE ( 'NONE', #457, #607 ) ;
#569 = VERTEX_POINT ( 'NONE', #492 ) ;
#570 = CARTESIAN_POINT ( 'NONE',  ( -9.999999999999998224, 5.773502691896264416, 7.500000000000000000 ) ) ;
#571 = ORIENTED_EDGE ( 'NONE', *, *, #48, .T. ) ;
#572 = DIRECTION ( 'NONE',  ( 1.000000000000000000, 0.000000000000000000, 0.000000000000000000 ) ) ;
#573 = CIRCLE ( 'NONE', #361, 10.00000000000000533 ) ;
#574 = DIRECTION ( 'NONE',  ( 0.8660254037844385966, -0.5000000000000001110, 0.000000000000000000 ) ) ;
#575 = CIRCLE ( 'NONE', #565, 10.00000000000000178 ) ;
#576 = CARTESIAN_POINT ( 'NONE',  ( 1.040834085586084257E-14, -11.54700538379251462, 7.500000000000000000 ) ) ;
#577 = CARTESIAN_POINT ( 'NONE',  ( 36.37306695894642417, -21.00000000000000000, 7.500000000000000000 ) ) ;
#578 = VERTEX_POINT ( 'NONE', #703 ) ;
#579 = EDGE_CURVE ( 'NONE', #330, #471, #212, .T. ) ;
#580 = DIRECTION ( 'NONE',  ( -4.788548727557914186E-17, 1.000000000000000000, 0.000000000000000000 ) ) ;
#581 = DIRECTION ( 'NONE',  ( 0.000000000000000000, 0.000000000000000000, 1.000000000000000000 ) ) ;
#582 = ORIENTED_EDGE ( 'NONE', *, *, #48, .F. ) ;
#583 = PRODUCT_RELATED_PRODUCT_CATEGORY ( 'part', '', ( #514 ) ) ;
#584 = DIRECTION ( 'NONE',  ( -0.8660254037844385966, -0.4999999999999999445, 0.000000000000000000 ) ) ;
#585 = FACE_OUTER_BOUND ( 'NONE', #36, .T. ) ;
#586 = CIRCLE ( 'NONE', #352, 7.500000000000000000 ) ;
#587 = DIRECTION ( 'NONE',  ( -0.000000000000000000, -0.000000000000000000, -1.000000000000000000 ) ) ;
#588 = DIRECTION ( 'NONE',  ( 0.000000000000000000, 0.000000000000000000, 1.000000000000000000 ) ) ;
#589 = VERTEX_POINT ( 'NONE', #37 ) ;
#590 = CARTESIAN_POINT ( 'NONE',  ( 36.37306695894642417, -21.00000000000000000, 7.500000000000000000 ) ) ;
#591 = EDGE_CURVE ( 'NONE', #253, #330, #392, .T. ) ;
#592 = VERTEX_POINT ( 'NONE', #317 ) ;
#593 = PRODUCT_DEFINITION_CONTEXT ( 'detailed design', #165, 'design' ) ;
#594 = DIRECTION ( 'NONE',  ( -1.000000000000000000, 0.000000000000000000, 0.000000000000000000 ) ) ;
#595 = CYLINDRICAL_SURFACE ( 'NONE', #55, 7.500000000000000000 ) ;
#596 = ORIENTED_EDGE ( 'NONE', *, *, #163, .F. ) ;
#597 = CIRCLE ( 'NONE', #126, 7.500000000000000000 ) ;
#598 = CARTESIAN_POINT ( 'NONE',  ( -9.999999999999998224, 5.773502691896264416, 7.500000000000000000 ) ) ;
#599 = DIRECTION ( 'NONE',  ( 0.000000000000000000, 0.000000000000000000, 1.000000000000000000 ) ) ;
#600 = ORIENTED_EDGE ( 'NONE', *, *, #69, .F. ) ;
#601 = ADVANCED_FACE ( 'NONE', ( #278 ), #500, .T. ) ;
#602 = CARTESIAN_POINT ( 'NONE',  ( -43.87306695894642417, -21.00000000000000000, 29.50000000000000000 ) ) ;
#603 = PLANE ( 'NONE',  #629 ) ;
#604 = ORIENTED_EDGE ( 'NONE', *, *, #310, .F. ) ;
#605 = FACE_OUTER_BOUND ( 'NONE', #616, .T. ) ;
#606 = VERTEX_POINT ( 'NONE', #699 ) ;
#607 = VECTOR ( 'NONE', #669, 1000.000000000000114 ) ;
#608 = AXIS2_PLACEMENT_3D ( 'NONE', #8, #460, #354 ) ;
#609 = DIRECTION ( 'NONE',  ( 1.000000000000000000, 0.000000000000000000, 0.000000000000000000 ) ) ;
#610 = CARTESIAN_POINT ( 'NONE',  ( 9.999999999999994671, 5.773502691896262640, 7.500000000000000000 ) ) ;
#611 = ORIENTED_EDGE ( 'NONE', *, *, #143, .F. ) ;
#612 = ADVANCED_FACE ( 'NONE', ( #483, #167, #395, #209, #263 ), #93, .T. ) ;
#613 = AXIS2_PLACEMENT_3D ( 'NONE', #139, #588, #522 ) ;
#614 = DIRECTION ( 'NONE',  ( -1.000000000000000000, 0.000000000000000000, 0.000000000000000000 ) ) ;
#615 = ADVANCED_FACE ( 'NONE', ( #432 ), #495, .T. ) ;
#616 = EDGE_LOOP ( 'NONE', ( #625, #15 ) ) ;
#617 = CARTESIAN_POINT ( 'NONE',  ( 9.999999999999994671, 5.773502691896262640, -7.500000000000000000 ) ) ;
#618 = VERTEX_POINT ( 'NONE', #49 ) ;
#619 = AXIS2_PLACEMENT_3D ( 'NONE', #27, #329, #205 ) ;
#620 = AXIS2_PLACEMENT_3D ( 'NONE', #71, #225, #338 ) ;
#621 = CYLINDRICAL_SURFACE ( 'NONE', #508, 10.00000000000000178 ) ;
#622 = AXIS2_PLACEMENT_3D ( 'NONE', #590, #96, #594 ) ;
#623 = ORIENTED_EDGE ( 'NONE', *, *, #134, .F. ) ;
#624 = CARTESIAN_POINT ( 'NONE',  ( -31.37306696058861277, -29.66025403879251243, 7.500000000000000000 ) ) ;
#625 = ORIENTED_EDGE ( 'NONE', *, *, #176, .T. ) ;
#626 = LINE ( 'NONE', #576, #56 ) ;
#627 = DIRECTION ( 'NONE',  ( 1.000000000000000000, 0.000000000000000000, 0.000000000000000000 ) ) ;
#628 = CARTESIAN_POINT ( 'NONE',  ( -36.37306695894642417, -21.00000000000000000, 7.500000000000000000 ) ) ;
#629 = AXIS2_PLACEMENT_3D ( 'NONE', #280, #711, #210 ) ;
#630 = LINE ( 'NONE', #320, #435 ) ;
#631 = VECTOR ( 'NONE', #121, 1000.000000000000000 ) ;
#632 = ORIENTED_EDGE ( 'NONE', *, *, #284, .T. ) ;
#633 = EDGE_CURVE ( 'NONE', #606, #341, #331, .T. ) ;
#634 = DIRECTION ( 'NONE',  ( -0.000000000000000000, -0.000000000000000000, -1.000000000000000000 ) ) ;
#635 = DIRECTION ( 'NONE',  ( 1.000000000000000000, 0.000000000000000000, 0.000000000000000000 ) ) ;
#636 = ORIENTED_EDGE ( 'NONE', *, *, #666, .T. ) ;
#637 = LINE ( 'NONE', #480, #300 ) ;
#638 = CARTESIAN_POINT ( 'NONE',  ( -28.87306695894642417, -21.00000000000000000, 7.500000000000000000 ) ) ;
#639 = EDGE_LOOP ( 'NONE', ( #370, #224, #10, #398 ) ) ;
#640 = DIRECTION ( 'NONE',  ( -0.000000000000000000, -0.000000000000000000, -1.000000000000000000 ) ) ;
#641 = DIRECTION ( 'NONE',  ( -0.000000000000000000, -0.000000000000000000, -1.000000000000000000 ) ) ;
#642 = VECTOR ( 'NONE', #488, 1000.000000000000000 ) ;
#643 = ORIENTED_EDGE ( 'NONE', *, *, #373, .T. ) ;
#644 = DIRECTION ( 'NONE',  ( 0.000000000000000000, 0.000000000000000000, 1.000000000000000000 ) ) ;
#645 =( NAMED_UNIT ( * ) PLANE_ANGLE_UNIT ( ) SI_UNIT ( $, .RADIAN. ) );
#646 = ORIENTED_EDGE ( 'NONE', *, *, #319, .F. ) ;
#647 = CARTESIAN_POINT ( 'NONE',  ( -36.37306695894642417, -21.00000000000000000, 7.500000000000000000 ) ) ;
#648 = FACE_OUTER_BOUND ( 'NONE', #405, .T. ) ;
#649 = ORIENTED_EDGE ( 'NONE', *, *, #153, .F. ) ;
#650 = CYLINDRICAL_SURFACE ( 'NONE', #499, 7.500000000000000000 ) ;
#651 =( NAMED_UNIT ( * ) SI_UNIT ( $, .STERADIAN. ) SOLID_ANGLE_UNIT ( ) );
#652 = EDGE_LOOP ( 'NONE', ( #154, #643 ) ) ;
#653 = CIRCLE ( 'NONE', #267, 7.500000000000000000 ) ;
#654 = VECTOR ( 'NONE', #359, 1000.000000000000000 ) ;
#655 = DIRECTION ( 'NONE',  ( 1.000000000000000000, 0.000000000000000000, 0.000000000000000000 ) ) ;
#656 = ORIENTED_EDGE ( 'NONE', *, *, #266, .F. ) ;
#657 = DIRECTION ( 'NONE',  ( 0.5000000000000000000, -0.8660254037844387076, 0.000000000000000000 ) ) ;
#658 = EDGE_CURVE ( 'NONE', #179, #450, #127, .T. ) ;
#659 = DIRECTION ( 'NONE',  ( -1.000000000000000000, 0.000000000000000000, 0.000000000000000000 ) ) ;
#660 = ORIENTED_EDGE ( 'NONE', *, *, #563, .F. ) ;
#661 =( NAMED_UNIT ( * ) SI_UNIT ( $, .STERADIAN. ) SOLID_ANGLE_UNIT ( ) );
#662 = LINE ( 'NONE', #295, #228 ) ;
#663 = ORIENTED_EDGE ( 'NONE', *, *, #180, .F. ) ;
#664 = AXIS2_PLACEMENT_3D ( 'NONE', #533, #581, #200 ) ;
#665 = ADVANCED_FACE ( 'NONE', ( #384 ), #151, .T. ) ;
#666 = EDGE_CURVE ( 'NONE', #316, #391, #322, .T. ) ;
#667 = DIRECTION ( 'NONE',  ( 1.000000000000000000, 0.000000000000000000, 0.000000000000000000 ) ) ;
#668 = ORIENTED_EDGE ( 'NONE', *, *, #153, .T. ) ;
#669 = DIRECTION ( 'NONE',  ( 0.8660254037844385966, -0.5000000000000001110, 0.000000000000000000 ) ) ;
#670 = ORIENTED_EDGE ( 'NONE', *, *, #307, .T. ) ;
#671 = DIRECTION ( 'NONE',  ( 0.000000000000000000, 0.000000000000000000, 1.000000000000000000 ) ) ;
#672 = CYLINDRICAL_SURFACE ( 'NONE', #700, 7.500000000000000000 ) ;
#673 = CIRCLE ( 'NONE', #529, 7.500000000000000000 ) ;
#674 = AXIS2_PLACEMENT_3D ( 'NONE', #244, #313, #33 ) ;
#675 = LINE ( 'NONE', #452, #311 ) ;
#676 = VERTEX_POINT ( 'NONE', #560 ) ;
#677 = CLOSED_SHELL ( 'NONE', ( #559, #17, #178, #99, #419, #231, #365, #601, #21, #665, #315, #241, #458, #615, #612, #326, #173, #362, #344, #34, #491, #3, #250, #185 ) ) ;
#678 = LINE ( 'NONE', #26, #431 ) ;
#679 = ORIENTED_EDGE ( 'NONE', *, *, #441, .T. ) ;
#680 = DIRECTION ( 'NONE',  ( -0.000000000000000000, -0.000000000000000000, -1.000000000000000000 ) ) ;
#681 = CARTESIAN_POINT ( 'NONE',  ( 0.000000000000000000, 42.00000000000000000, 29.50000000000000000 ) ) ;
#682 = EDGE_CURVE ( 'NONE', #578, #551, #217, .T. ) ;
#683 = ORIENTED_EDGE ( 'NONE', *, *, #296, .F. ) ;
#684 = CARTESIAN_POINT ( 'NONE',  ( 41.37306696058862343, -12.33974596310373784, -7.500000000000000000 ) ) ;
#685 = EDGE_CURVE ( 'NONE', #381, #479, #312, .T. ) ;
#686 = CARTESIAN_POINT ( 'NONE',  ( 28.87306695894642417, -21.00000000000000000, 29.50000000000000000 ) ) ;
#687 = CIRCLE ( 'NONE', #540, 7.500000000000000000 ) ;
#688 = CYLINDRICAL_SURFACE ( 'NONE', #7, 9.999999999999998224 ) ;
#689 = LINE ( 'NONE', #197, #498 ) ;
#690 = ORIENTED_EDGE ( 'NONE', *, *, #417, .T. ) ;
#691 = DIRECTION ( 'NONE',  ( -0.000000000000000000, -0.000000000000000000, -1.000000000000000000 ) ) ;
#692 = CARTESIAN_POINT ( 'NONE',  ( -10.00000000000000000, 42.00000000189626093, -7.500000000000000000 ) ) ;
#693 = ORIENTED_EDGE ( 'NONE', *, *, #438, .F. ) ;
#694 = EDGE_CURVE ( 'NONE', #676, #169, #328, .T. ) ;
#695 = CARTESIAN_POINT ( 'NONE',  ( 0.000000000000000000, 0.000000000000000000, 7.500000000000000000 ) ) ;
#696 = DIRECTION ( 'NONE',  ( 0.000000000000000000, 1.000000000000000000, 0.000000000000000000 ) ) ;
#697 = VECTOR ( 'NONE', #276, 1000.000000000000000 ) ;
#698 = CIRCLE ( 'NONE', #389, 9.999999999999998224 ) ;
#699 = CARTESIAN_POINT ( 'NONE',  ( -41.37306696058863054, -12.33974596310373428, 7.500000000000000000 ) ) ;
#700 = AXIS2_PLACEMENT_3D ( 'NONE', #681, #248, #141 ) ;
#701 = DIRECTION ( 'NONE',  ( 0.000000000000000000, 0.000000000000000000, 1.000000000000000000 ) ) ;
#702 = ORIENTED_EDGE ( 'NONE', *, *, #451, .F. ) ;
#703 = CARTESIAN_POINT ( 'NONE',  ( -7.500000000000000000, 42.00000000000000000, 29.50000000000000000 ) ) ;
#704 = CARTESIAN_POINT ( 'NONE',  ( -7.500000000000000000, 0.000000000000000000, 7.500000000000000000 ) ) ;
#705 = ORIENTED_EDGE ( 'NONE', *, *, #129, .T. ) ;
#706 = CARTESIAN_POINT ( 'NONE',  ( -41.37306696058863054, -12.33974596310373428, 7.500000000000000000 ) ) ;
#707 = LINE ( 'NONE', #112, #325 ) ;
#708 = ORIENTED_EDGE ( 'NONE', *, *, #468, .F. ) ;
#709 = VECTOR ( 'NONE', #186, 1000.000000000000000 ) ;
#710 = CARTESIAN_POINT ( 'NONE',  ( 1.040834085586084257E-14, -11.54700538379251462, 7.500000000000000000 ) ) ;
#711 = DIRECTION ( 'NONE',  ( -1.000000000000000000, 0.000000000000000000, 0.000000000000000000 ) ) ;
#712 = ORIENTED_EDGE ( 'NONE', *, *, #390, .T. ) ;
#713 =( LENGTH_UNIT ( ) NAMED_UNIT ( * ) SI_UNIT ( .MILLI., .METRE. ) );
ENDSEC;
END-ISO-10303-21;
